<svg width="500" height="500" viewBox="0 0 500 500" xmlns="http://www.w3.org/2000/svg">
  <defs>
    <clipPath id="circ"><circle cx="250" cy="250" r="250"/></clipPath>
    <clipPath id="cap"><rect x="150" y="58" width="200" height="317" rx="100"/></clipPath>
  </defs>
  <circle cx="250" cy="250" r="250" fill="#0A0F1C"/>
  <rect x="150" y="58" width="200" height="317" rx="100" fill="#4F8EF7" clip-path="url(#circ)"/>
  <line x1="150" y1="142" x2="350" y2="142" stroke="rgba(255,255,255,0.28)" stroke-width="21" clip-path="url(#cap)" stroke-linecap="round"/>
  <line x1="150" y1="200" x2="350" y2="200" stroke="rgba(255,255,255,0.28)" stroke-width="21" clip-path="url(#cap)" stroke-linecap="round"/>
  <line x1="150" y1="258" x2="350" y2="258" stroke="rgba(255,255,255,0.28)" stroke-width="21" clip-path="url(#cap)" stroke-linecap="round"/>
  <line x1="150" y1="316" x2="350" y2="316" stroke="rgba(255,255,255,0.28)" stroke-width="21" clip-path="url(#cap)" stroke-linecap="round"/>
  <path d="M92 317 L92 367 A158 158 0 0 0 408 367 L408 317" fill="none" stroke="#4F8EF7" stroke-width="33" stroke-linecap="round" clip-path="url(#circ)"/>
  <line x1="250" y1="433" x2="250" y2="475" stroke="#4F8EF7" stroke-width="33" stroke-linecap="round" clip-path="url(#circ)"/>
  <line x1="175" y1="475" x2="325" y2="475" stroke="#4F8EF7" stroke-width="33" stroke-linecap="round" clip-path="url(#circ)"/>
  <path d="M425 250 Q458 300 425 350" fill="none" stroke="#4F8EF7" stroke-width="12" stroke-linecap="round" opacity="0.5" clip-path="url(#circ)"/>
  <path d="M452 220 Q496 300 452 380" fill="none" stroke="#4F8EF7" stroke-width="9" stroke-linecap="round" opacity="0.3" clip-path="url(#circ)"/>
</svg>
